<?xml version="1.0" encoding="UTF-8"?>
<svg id="Layer_2" data-name="Layer 2" xmlns="http://www.w3.org/2000/svg" viewBox="0 0 49.92 78.31">
  <defs>
    <style>
      .cls-1 {
        fill: #fff;
      }

      .cls-1, .cls-2, .cls-3 {
        stroke-width: 0px;
      }

      .cls-2 {
        fill: #0f3e65;
      }

      .cls-3 {
        fill: #00aeef;
      }

      .cls-4 {
        fill: none;
        stroke: #0f3e65;
        stroke-linejoin: round;
        stroke-width: 1.46px;
      }
    </style>
  </defs>
  <g id="Designer_Sponsorship" data-name="Designer + Sponsorship">
    <g>
      <g>
        <g>
          <polygon class="cls-1" points="47.01 29.99 49.19 33.59 47.01 39.72 40.89 43.27 40.89 33.49 47.01 29.99"/>
          <polygon class="cls-3" points="47.01 29.99 40.89 33.49 38.53 32.12 38.53 25.14 38.58 25.1 47.01 29.99"/>
          <polygon class="cls-3" points="40.89 33.49 40.89 43.27 38.53 41.93 38.53 32.12 40.89 33.49"/>
          <polygon class="cls-1" points="38.57 5.61 38.57 15.36 34.34 17.8 30.12 20.24 30.12 10.48 38.57 5.61"/>
          <polygon class="cls-3" points="38.57 5.61 30.12 10.48 21.67 5.61 30.12 .73 38.57 5.61"/>
          <polygon class="cls-1" points="38.53 32.12 38.53 41.93 38.53 59.26 30.12 64.13 30.12 25.15 38.53 20.23 38.53 25.14 38.53 32.12"/>
          <polygon class="cls-3" points="38.53 20.23 30.12 25.15 27.8 23.79 27.8 18.9 30.12 20.24 34.34 17.8 38.53 20.23"/>
          <polygon class="cls-3" points="30.12 25.15 30.12 64.13 21.71 59.26 21.71 54.34 27.8 50.82 27.8 41.06 24.13 38.94 27.8 30.18 27.8 23.79 30.12 25.15"/>
          <polygon class="cls-3" points="30.12 10.48 30.12 20.24 27.8 18.9 27.8 14.87 21.67 11.37 21.67 5.61 30.12 10.48"/>
          <polygon class="cls-1" points="27.8 41.06 27.8 50.82 21.71 54.34 11.16 60.44 11.16 50.68 27.8 14.87 27.8 18.9 27.8 23.79 27.8 30.18 24.13 38.94 21.75 44.62 27.8 41.06"/>
          <polygon class="cls-3" points="27.8 14.87 11.16 50.68 2.71 45.81 19.27 9.99 21.67 11.37 27.8 14.87"/>
          <polygon class="cls-2" points="27.8 41.06 21.75 44.62 24.13 38.94 27.8 41.06"/>
          <polygon class="cls-3" points="11.16 50.68 11.16 60.44 2.71 55.56 2.71 45.81 11.16 50.68"/>
        </g>
        <g>
          <polyline class="cls-4" points="40.89 43.27 47.01 39.72 49.19 33.59 47.01 29.99"/>
          <polyline class="cls-4" points="38.53 41.93 40.89 43.27 40.89 33.49"/>
          <polyline class="cls-4" points="38.53 32.12 40.89 33.49 47.01 29.99 38.58 25.1 38.53 25.14"/>
          <polyline class="cls-4" points="21.71 54.34 21.71 59.26 30.12 64.13"/>
          <polyline class="cls-4" points="30.12 25.15 30.12 64.13 38.53 59.26 38.53 41.93 38.53 32.12 38.53 25.14 38.53 20.23"/>
          <polyline class="cls-4" points="27.8 23.79 30.12 25.15 38.53 20.23 34.34 17.8"/>
          <polyline class="cls-4" points="30.12 20.24 34.34 17.8 38.57 15.36 38.57 5.61"/>
          <polyline class="cls-4" points="30.12 10.48 38.57 5.61 30.12 .73 21.67 5.61"/>
          <polyline class="cls-4" points="27.8 18.9 30.12 20.24 30.12 10.48 21.67 5.61 21.67 11.37"/>
          <polyline class="cls-4" points="24.13 38.94 27.8 30.18 27.8 23.79 27.8 18.9 27.8 14.87"/>
          <polyline class="cls-4" points="11.16 60.44 21.71 54.34 27.8 50.82 27.8 41.06"/>
          <polygon class="cls-4" points="24.13 38.94 21.75 44.62 27.8 41.06 24.13 38.94"/>
          <polyline class="cls-4" points="11.16 50.68 27.8 14.87 21.67 11.37 19.27 9.99 2.71 45.81"/>
          <polygon class="cls-4" points="2.71 45.81 2.71 55.56 11.16 60.44 11.16 50.68 2.71 45.81"/>
        </g>
      </g>
      <g>
        <g>
          <path class="cls-2" d="M4.37,72.16h-2.33v-1.41c0-.83.21-1.4,1.11-1.4.23,0,.55.04.76.1v-.65c-.2-.06-.49-.11-.78-.11-.45,0-.95.12-1.3.45-.39.38-.51.94-.51,1.7v1.31H.29l-.29.64h1.32v5.39h.72v-5.39h1.57c.22-.25.47-.46.76-.64Z"/>
          <path class="cls-2" d="M6.62,72.02c1.8,0,3.12,1.37,3.12,3.15s-1.32,3.15-3.12,3.15-3.12-1.37-3.12-3.15,1.32-3.15,3.12-3.15ZM6.62,77.65c1.37,0,2.4-1.06,2.4-2.48s-1.03-2.49-2.4-2.49-2.4,1.06-2.4,2.49,1.03,2.48,2.4,2.48Z"/>
          <path class="cls-2" d="M14.68,77.31c-.58.55-1.35,1-2.29,1-.62,0-1.2-.21-1.58-.64-.37-.42-.53-.98-.53-1.89v-3.64h.72v3.5c0,.75.1,1.22.38,1.54.27.31.69.45,1.14.45.86,0,1.6-.5,2.18-1.11v-4.38h.72v6.02h-.72v-.86h-.02Z"/>
          <path class="cls-2" d="M16.04,72.16h.72v.98h.02c.47-.61.91-.98,1.69-.98.13,0,.37.13.61,0l.02.64c-.11-.02-.27,0-.4,0-.82,0-1.46.44-1.95,1.18v4.21h-.72v-6.02Z"/>
          <path class="cls-2" d="M22.24,78.12c-.23.11-.59.2-.95.2-.44,0-.94-.12-1.29-.51-.31-.35-.43-.89-.43-1.68v-3.33h-1.2v-.64h1.2v-1.69l.72-.12v1.81h1.95v.64h-1.95v3.21c0,.91.13,1.65,1.09,1.65.32,0,.62-.09.86-.22v.69Z"/>
          <path class="cls-2" d="M23.09,68.83h.72v4.17h.02c.6-.55,1.38-.98,2.31-.98.67,0,1.19.23,1.54.61.37.39.54.91.54,1.8v3.75h-.72v-3.61c0-.76-.11-1.15-.39-1.44-.26-.28-.61-.43-1.09-.43-.84,0-1.62.45-2.22,1.08v4.41h-.72v-9.35Z"/>
          <path class="cls-2" d="M29.66,69.24c.5,0,.92.42.92.92s-.42.92-.93.92-.92-.42-.92-.92.42-.92.93-.92ZM28.91,72.16h1.48v6.02h-1.48v-6.02Z"/>
          <path class="cls-2" d="M35.46,77.82c-.4.28-.95.49-1.6.49-1.58,0-2.89-1.19-2.89-3.04s1.33-3.26,3.18-3.26c.53,0,.94.11,1.3.27h.02v-3.2l1.48-.27v9.35h-1.47v-.34h-.02ZM35.47,73.59c-.34-.17-.77-.31-1.22-.31-1.13,0-1.79.84-1.79,1.92s.62,1.86,1.7,1.86c.5,0,.95-.18,1.31-.42v-3.06Z"/>
          <path class="cls-2" d="M39,75.57c.18,1,.98,1.52,2,1.52.76,0,1.47-.28,2.06-.7v1.36c-.56.35-1.42.56-2.2.56-1.93,0-3.35-1.25-3.35-3.13s1.43-3.16,3.07-3.16c1.49,0,2.82,1.02,2.82,2.95,0,.2-.01.44-.04.6h-4.35ZM42,74.54c-.11-.91-.77-1.32-1.44-1.32s-1.37.42-1.55,1.32h3Z"/>
        </g>
        <path class="cls-2" d="M48.42,77.82c-.36.27-.94.49-1.6.49-1.59,0-2.9-1.2-2.9-3.05s1.36-3.24,3.21-3.24c.55,0,1.08.13,1.54.37l1.24-.22v6.01h-1.46v-.34h-.02ZM48.42,73.6c-.33-.17-.77-.32-1.24-.32-1.11,0-1.78.82-1.78,1.9s.64,1.89,1.73,1.89c.47,0,.93-.16,1.29-.42v-3.05Z"/>
      </g>
    </g>
  </g>
</svg>