<?xml version="1.0" encoding="utf-8"?>
<!-- Generator: Adobe Illustrator 19.2.1, SVG Export Plug-In . SVG Version: 6.00 Build 0)  -->
<svg version="1.1" id="layer" xmlns="http://www.w3.org/2000/svg" xmlns:xlink="http://www.w3.org/1999/xlink" x="0px" y="0px"
	 viewBox="0 0 652 652" style="enable-background:new 0 0 652 652;" xml:space="preserve">
<style type="text/css">
	.st0{fill:#00418E;}
	.st1{fill:#C3292F;}
	.st2{fill:#FFFFFF;}
	.st3{fill:#A6A6A7;}
</style>
<path class="st0" d="M113.3,336.6L85.8,403H65.1l-7-35.3l-5.6,15.6L44.2,403h-20l27.5-66.5h19.6l7.4,37.3l5.6-15.6l9-21.7H113.3z
	 M121.1,336.6L93.6,403h20.9l9.2-22.1h22.9l6.6-15.9h-22.9l5.1-12.4h35.1L149.7,403h20.9l20.9-50.4h18.8l6.6-16H121.1z M212,381.6
	h13.2l3.4-24.5L212,381.6z M247.9,336.6l-5.2,66.5H222l1-7.1h-20.8l-4.9,7.1h-20.4l49.7-66.5H247.9z M276.6,385.4l7.1-17.3H260
	l-7.1,17.3H276.6z"/>
<path class="st1" d="M380,336.6L352.5,403h-18.8l7.9-19l4.7-10.6l6.2-12.3h-0.2l-28.5,42h-15.5l6.2-42h-0.2l-3.3,10.1l-4,10.6
	l-8.8,21.3h-18.8l27.5-66.5h25.3l-6.4,42.6l28.9-42.6H380z M387.9,336.6L360.4,403h53.3l5.8-14.1h-32.4l4.4-10.7h26.3l6.6-15.9
	h-26.3l4-9.7h41.9L423.2,403h20.9l20.9-50.4h18.8l6.6-16H387.9z M508.4,352.5h9.8c4.9,0,7.5,2.3,5.5,7.1c-2,4.7-6.1,6.5-12.6,6.5
	h-8.2L508.4,352.5z M503,381.1c9.8,0,10,2.9,6.3,11.9c-2.5,6.1-3.8,10.4-3.9,12h21.2l0.9-2.1c-2.5,0-1-3,2.7-12
	c5.7-13.8,2.3-15.5-3.3-18.1c8.3-2.2,14.4-8.8,17.6-16.7c5.5-13.3,1-19.5-20.2-19.5H494l-28.3,68.3h20.9l9.8-23.8H503z M562.4,370.3
	c3.6-8.6,10.7-18.9,20.1-18.9c9.3-0.3,8.8,9.6,5,18.9c-4.7,11.3-11.7,19.6-20.7,19.6C556.8,390,558.8,379.1,562.4,370.3
	 M608.5,370.3c7.5-18,4-35.6-18.8-35.6c-19.9,0-39.2,14-48.1,35.4c-9.6,23.3-1.7,36.5,18.3,36.5
	C578.8,406.7,598.8,393.6,608.5,370.3"/>
<path class="st0" d="M99.4,319.5c108.9-89.3,161.6,35.7,242.9-22.6c88.5-63.5,203,4.8,203,4.8c-144.2-100.2-207.4,16.1-275.6-16.7
	C133.3,219.4,22,283.7,22,283.7S120.2,281.3,99.4,319.5"/>
<path class="st2" d="M404.6,276.2c-158.1-76.3-268.3,4.3-268.3,4.3s112.1-6.3,86.2,39.7c110.2-96,169.7,36.4,257.7-18.5
	c67.2-41.9,141.8-9.9,141.8-9.9C474.3,213.2,461.6,303.7,404.6,276.2"/>
<path class="st3" d="M227.4,311.7c108.9-89.3,162.8,39.9,247.7-13.1c64.9-40.5,138.7-7.1,138.7-7.1
	c-142.4-71.2-147.8,18.5-216.1-14.3C261.3,211.7,150,276,150,276S248.2,273.6,227.4,311.7"/>
</svg>
