<?xml version="1.0" encoding="UTF-8"?>
<svg id="Layer_2" data-name="Layer 2" xmlns="http://www.w3.org/2000/svg" viewBox="0 0 230.79 184.93">
  <defs>
    <style>
      .cls-1 {
        fill: #000;
        stroke-width: 0px;
      }
    </style>
  </defs>
  <g id="Header_Menu" data-name="Header Menu">
    <g>
      <g>
        <path class="cls-1" d="M48.66,0c-12.5,0-21.84,3.16-28.04,9.49-6.17,6.33-9.26,14.45-9.26,24.36v8.62H0v20.47h11.37v79.86h30.61V62.94h21.12v-20.47h-21.12v-6.69c0-4.6.9-7.87,2.7-9.8,1.8-1.93,4.78-2.91,8.95-2.91,3.88,0,7.61.21,11.21.64V.87c-2.6-.13-5.25-.33-7.97-.54S51.42,0,48.66,0Z"/>
        <rect class="cls-1" x="68.73" y="1.39" width="30.61" height="25.23"/>
        <path class="cls-1" d="M176.08,31.35v14.87h-.44c-3.73-6.46-8.38-11.06-13.91-13.79-5.53-2.73-11.96-4.09-19.29-4.09-7.77,0-14.63,1.52-20.58,4.53-5.97,3.01-10.96,7.07-15,12.19-3.09,3.91-5.58,8.28-7.54,13.12v-26.8h-30.61v111.47h30.61v-31.33c1.67,4.27,3.83,8.15,6.46,11.6,3.88,5.09,8.85,9.13,14.87,12.06,6.04,2.96,13.22,4.42,21.55,4.42,6.76,0,13.19-1.39,19.29-4.19,6.1-2.8,10.8-7.15,14.12-13.04h.44v14.66c.13,7.9-1.77,14.45-5.71,19.62-3.96,5.17-10.24,7.77-18.85,7.77-5.45,0-10.29-1.11-14.45-3.34-4.17-2.24-6.97-6.22-8.41-11.96h-30.4c.44,6.33,2.19,11.75,5.27,16.28,3.09,4.53,6.97,8.23,11.65,11.11,4.68,2.88,9.85,4.99,15.51,6.35,5.68,1.36,11.24,2.06,16.72,2.06,12.78,0,22.99-1.72,30.61-5.17,7.61-3.45,13.43-7.66,17.46-12.6,4.01-4.96,6.64-10.31,7.87-16.05,1.21-5.76,1.83-10.85,1.83-15.3V31.35h-29.12.05ZM174.46,97.22c-1.08,3.68-2.7,6.94-4.86,9.8-2.16,2.88-4.89,5.17-8.2,6.89-3.32,1.72-7.12,2.6-11.42,2.6-4.73,0-8.69-1-11.86-3.01s-5.71-4.6-7.66-7.77c-1.93-3.16-3.32-6.71-4.09-10.67-.8-3.96-1.18-7.95-1.18-11.96s.46-8.15,1.41-11.96c.93-3.81,2.44-7.18,4.53-10.13,2.08-2.93,4.68-5.27,7.77-7s6.79-2.6,11.11-2.6c5.04,0,9.21.93,12.5,2.8,3.32,1.88,5.97,4.4,7.97,7.54,2.01,3.16,3.45,6.79,4.32,10.88.87,4.09,1.29,8.44,1.29,13.04,0,4.01-.54,7.87-1.62,11.52v.03Z"/>
      </g>
      <g>
        <path class="cls-1" d="M210.37,30.94h8.26v.93h-3.6v10.44h-1.08v-10.44h-3.6v-.93h.03Z"/>
        <path class="cls-1" d="M220.12,42.28v-11.34h1.65l3.73,10.01h.03l3.65-10.01h1.62v11.34h-1.08v-10.13h-.03l-3.73,10.13h-1l-3.73-10.13h-.03v10.13h-1.08Z"/>
      </g>
    </g>
  </g>
</svg>