<?xml version="1.0" encoding="UTF-8"?>
<svg id="Layer_2" data-name="Layer 2" xmlns="http://www.w3.org/2000/svg" viewBox="0 0 137.19 47.93">
  <defs>
    <style>
      .cls-1 {
        fill: #f7901e;
      }

      .cls-1, .cls-2 {
        stroke-width: 0px;
      }

      .cls-2 {
        fill: #767a82;
      }
    </style>
  </defs>
  <g id="Designer_Sponsorship" data-name="Designer + Sponsorship">
    <g>
      <polygon class="cls-2" points="55.72 6.44 68.71 6.44 68.71 9.24 58.93 9.24 58.93 14.97 67.6 14.97 67.6 17.71 58.93 17.71 58.93 23.66 69.13 23.66 69.13 26.46 55.72 26.46 55.72 6.44"/>
      <polygon class="cls-2" points="70.27 6.44 73.66 6.44 79.48 19.89 85.12 6.44 88.36 6.44 79.54 26.75 79.36 26.75 70.27 6.44"/>
      <path class="cls-2" d="M97.79,22.72h-8.28l-1.59,3.74h-3.24l8.94-20.43h.18l8.97,20.43h-3.39l-1.59-3.74ZM90.68,19.95h5.94l-2.94-7.01-3,7.01Z"/>
      <polygon class="cls-2" points="107.42 13.3 107.42 26.46 104.43 26.46 104.43 6.15 104.67 6.15 117.74 19.6 117.74 6.44 120.74 6.44 120.74 26.75 120.5 26.75 107.42 13.3"/>
      <g>
        <path class="cls-2" d="M125.79,21.19c.93,1.74,2.52,2.71,4.62,2.71s3.6-1,3.6-2.62c0-1.88-1.47-2.59-3.27-3.39l-1.41-.62c-3-1.3-5.07-2.77-5.07-5.89s2.37-5.21,5.85-5.21c2.82,0,4.71,1.03,6,3.15l-2.43,1.56c-.78-1.3-1.89-1.94-3.51-1.94-1.74,0-2.79.94-2.79,2.33,0,1.59,1.02,2.15,3.24,3.12l1.41.62c3.09,1.35,5.16,2.8,5.16,6.18,0,3.68-2.88,5.53-6.75,5.53-3.48,0-5.97-1.65-7.35-4.21l2.7-1.32Z"/>
        <path class="cls-2" d="M99.74,30.26h3.62c2.02,0,3.02,1.14,3.02,2.6,0,1-.54,1.81-1.53,2.1,1.23.28,1.99,1.06,1.99,2.45,0,1.61-1.11,2.83-3.23,2.83h-3.87v-9.98ZM103.27,34.41c1.06,0,1.54-.59,1.54-1.41s-.46-1.39-1.57-1.39h-1.91v2.8h1.94ZM103.52,38.89c1.17,0,1.74-.66,1.74-1.6s-.63-1.61-1.82-1.61h-2.11v3.22h2.2Z"/>
      </g>
      <path class="cls-2" d="M114.26,38.37h-4.13l-.79,1.86h-1.61l4.46-10.19h.09l4.47,10.19h-1.69l-.79-1.86ZM110.72,36.99h2.96l-1.47-3.49-1.49,3.49Z"/>
      <polygon class="cls-2" points="119.66 33.68 119.66 40.24 118.16 40.24 118.16 30.11 118.28 30.11 124.8 36.82 124.8 30.26 126.3 30.26 126.3 40.39 126.18 40.39 119.66 33.68"/>
      <polygon class="cls-2" points="132.42 34.54 136.53 40.24 134.59 40.24 131.36 35.73 130.22 37.05 130.22 40.24 128.62 40.24 128.62 30.26 130.22 30.26 130.22 35.08 134.23 30.26 136.02 30.26 132.42 34.54"/>
      <path class="cls-1" d="M34.99,26.71h0s-18.74,0-18.74,0v-5.5h20.73c-1.28-5.66-6.42-9.89-12.57-9.89-5.24,0-9.74,3.07-11.75,7.47h-.05c-.68,1.54-1.06,3.25-1.06,5.03,0,.99.07,1.96.29,2.89,1.28,5.66,6.42,9.89,12.57,9.89,4.84,0,9.04-2.62,11.24-6.49l4.74,2.91c-3.19,5.41-9.15,9.05-15.97,9.05-10.19,0-18.44-8.11-18.44-18.11S14.22,5.85,24.41,5.85s18.45,8.11,18.45,18.11c0,.94-.07,1.85-.21,2.75h-7.66ZM24.41,0C10.93,0,0,10.73,0,23.96s10.93,23.97,24.41,23.97,24.41-10.73,24.41-23.97S37.89,0,24.41,0"/>
    </g>
  </g>
</svg>