<?xml version="1.0" encoding="utf-8"?>
<!-- Generator: Adobe Illustrator 26.2.1, SVG Export Plug-In . SVG Version: 6.00 Build 0)  -->
<svg version="1.1" id="Layer_1" xmlns="http://www.w3.org/2000/svg" xmlns:xlink="http://www.w3.org/1999/xlink" x="0px" y="0px"
	 viewBox="0 0 339 99" style="enable-background:new 0 0 339 99;" xml:space="preserve">
<style type="text/css">
	.st0{fill:#FFFFFF;}
	.st1{fill:#CFAB0D;}
</style>
<g>
	<g>
		<path class="st0" d="M116.7,76.8h-1.6V65.3h1.6V76.8z"/>
		<path class="st0" d="M121.1,65.4c0.1,0,0.1,0.1,0.2,0.2l6.6,8.6c0-0.1,0-0.3,0-0.4c0-0.1,0-0.3,0-0.4v-8.1h1.4v11.5h-0.8
			c-0.1,0-0.2,0-0.3-0.1c-0.1,0-0.2-0.1-0.2-0.2l-6.6-8.6c0,0.1,0,0.3,0,0.4s0,0.2,0,0.4v8.2H120V65.3h0.8
			C120.9,65.3,121,65.4,121.1,65.4z"/>
		<path class="st0" d="M130.9,65.3h1.2c0.1,0,0.2,0,0.3,0.1c0.1,0.1,0.1,0.2,0.2,0.3l3.2,8.1c0.1,0.2,0.1,0.4,0.2,0.6
			c0.1,0.2,0.1,0.4,0.2,0.7c0-0.2,0.1-0.5,0.2-0.7c0.1-0.2,0.1-0.4,0.2-0.6l3.2-8.1c0-0.1,0.1-0.2,0.2-0.3c0.1-0.1,0.2-0.1,0.3-0.1
			h1.2L137,76.8h-1.4L130.9,65.3z"/>
		<path class="st0" d="M150.4,65.3v1.3h-5.5v3.8h4.5v1.2h-4.5v3.9h5.5v1.3h-7.1V65.3H150.4z"/>
		<path class="st0" d="M158.7,67.1c0,0.1-0.1,0.1-0.2,0.2c-0.1,0-0.1,0.1-0.2,0.1c-0.1,0-0.2,0-0.3-0.1s-0.3-0.2-0.5-0.3
			c-0.2-0.1-0.4-0.2-0.7-0.3c-0.3-0.1-0.6-0.1-0.9-0.1c-0.3,0-0.7,0-0.9,0.1c-0.3,0.1-0.5,0.2-0.7,0.4c-0.2,0.2-0.3,0.3-0.4,0.6
			s-0.1,0.4-0.1,0.7c0,0.3,0.1,0.6,0.2,0.8c0.2,0.2,0.4,0.4,0.6,0.5c0.3,0.1,0.6,0.3,0.9,0.4c0.3,0.1,0.7,0.2,1,0.3s0.7,0.2,1,0.4
			s0.6,0.3,0.9,0.6c0.3,0.2,0.5,0.5,0.6,0.8s0.2,0.7,0.2,1.2c0,0.5-0.1,1-0.3,1.4c-0.2,0.4-0.4,0.8-0.7,1.1s-0.7,0.6-1.2,0.8
			c-0.5,0.2-1,0.3-1.6,0.3c-0.7,0-1.4-0.1-2-0.4c-0.6-0.3-1.1-0.6-1.6-1.1l0.4-0.7c0-0.1,0.1-0.1,0.2-0.1s0.1-0.1,0.2-0.1
			c0.1,0,0.2,0.1,0.4,0.2s0.3,0.3,0.5,0.4c0.2,0.1,0.5,0.3,0.8,0.4s0.7,0.2,1.1,0.2c0.4,0,0.7,0,1-0.2s0.5-0.2,0.7-0.4
			c0.2-0.2,0.4-0.4,0.5-0.7s0.2-0.5,0.2-0.9c0-0.3-0.1-0.6-0.2-0.9c-0.2-0.2-0.4-0.4-0.6-0.6s-0.5-0.3-0.9-0.4
			c-0.3-0.1-0.7-0.2-1-0.3s-0.7-0.2-1-0.4c-0.3-0.1-0.6-0.3-0.9-0.6s-0.5-0.5-0.6-0.9c-0.2-0.3-0.2-0.8-0.2-1.3
			c0-0.4,0.1-0.8,0.2-1.2c0.2-0.4,0.4-0.7,0.7-1c0.3-0.3,0.7-0.5,1.1-0.7c0.4-0.2,0.9-0.3,1.5-0.3c0.6,0,1.2,0.1,1.8,0.3
			c0.5,0.2,1,0.5,1.4,0.9L158.7,67.1z"/>
		<path class="st0" d="M169.3,65.3v1.3h-3.7v10.2h-1.6V66.7h-3.7v-1.3H169.3z"/>
		<path class="st0" d="M177,73.1c0.1,0.1,0.1,0.3,0.2,0.4c0.1-0.1,0.1-0.3,0.2-0.4c0.1-0.1,0.1-0.3,0.2-0.4l3.9-7
			c0.1-0.1,0.1-0.2,0.2-0.2c0.1,0,0.2,0,0.3,0h1.1v11.5h-1.4v-8.4c0-0.1,0-0.2,0-0.4c0-0.1,0-0.3,0-0.4l-3.9,7.2
			c-0.1,0.2-0.3,0.4-0.6,0.4h-0.2c-0.2,0-0.4-0.1-0.6-0.4l-4-7.2c0,0.1,0,0.3,0,0.4c0,0.1,0,0.3,0,0.4v8.4h-1.4V65.3h1.1
			c0.1,0,0.2,0,0.3,0c0.1,0,0.1,0.1,0.2,0.2l4,7.1C176.9,72.8,177,72.9,177,73.1z"/>
		<path class="st0" d="M193.2,65.3v1.3h-5.5v3.8h4.5v1.2h-4.5v3.9h5.5v1.3h-7.1V65.3H193.2z"/>
		<path class="st0" d="M196.7,65.4c0.1,0,0.1,0.1,0.2,0.2l6.6,8.6c0-0.1,0-0.3,0-0.4c0-0.1,0-0.3,0-0.4v-8.1h1.4v11.5h-0.8
			c-0.1,0-0.2,0-0.3-0.1c-0.1,0-0.2-0.1-0.2-0.2l-6.6-8.6c0,0.1,0,0.3,0,0.4s0,0.2,0,0.4v8.2h-1.4V65.3h0.8
			C196.6,65.3,196.7,65.4,196.7,65.4z"/>
		<path class="st0" d="M215.7,65.3v1.3H212v10.2h-1.6V66.7h-3.7v-1.3H215.7z"/>
		<path class="st0" d="M226.7,73.1c0.1,0.1,0.1,0.3,0.2,0.4c0.1-0.1,0.1-0.3,0.2-0.4c0.1-0.1,0.1-0.3,0.2-0.4l3.9-7
			c0.1-0.1,0.1-0.2,0.2-0.2c0.1,0,0.2,0,0.3,0h1.1v11.5h-1.4v-8.4c0-0.1,0-0.2,0-0.4c0-0.1,0-0.3,0-0.4l-3.9,7.2
			c-0.1,0.2-0.3,0.4-0.6,0.4h-0.2c-0.2,0-0.4-0.1-0.6-0.4l-4-7.2c0,0.1,0,0.3,0,0.4c0,0.1,0,0.3,0,0.4v8.4h-1.4V65.3h1.1
			c0.1,0,0.2,0,0.3,0c0.1,0,0.1,0.1,0.2,0.2l4,7.1C226.6,72.8,226.6,72.9,226.7,73.1z"/>
		<path class="st0" d="M245.2,76.8H244c-0.1,0-0.3,0-0.3-0.1s-0.1-0.2-0.2-0.3l-1.1-2.8h-5.1l-1.1,2.8c0,0.1-0.1,0.2-0.2,0.3
			c-0.1,0.1-0.2,0.1-0.3,0.1h-1.2l4.6-11.5h1.6L245.2,76.8z M237.7,72.6h4.3l-1.8-4.7c-0.1-0.3-0.2-0.6-0.3-1.1
			c-0.1,0.2-0.1,0.4-0.2,0.6c-0.1,0.2-0.1,0.3-0.2,0.5L237.7,72.6z"/>
		<path class="st0" d="M248,65.4c0.1,0,0.1,0.1,0.2,0.2l6.6,8.6c0-0.1,0-0.3,0-0.4c0-0.1,0-0.3,0-0.4v-8.1h1.4v11.5h-0.8
			c-0.1,0-0.2,0-0.3-0.1c-0.1,0-0.2-0.1-0.2-0.2l-6.6-8.6c0,0.1,0,0.3,0,0.4s0,0.2,0,0.4v8.2h-1.4V65.3h0.8
			C247.8,65.3,247.9,65.4,248,65.4z"/>
		<path class="st0" d="M268.6,76.8h-1.2c-0.1,0-0.3,0-0.3-0.1s-0.1-0.2-0.2-0.3l-1.1-2.8h-5.1l-1.1,2.8c0,0.1-0.1,0.2-0.2,0.3
			c-0.1,0.1-0.2,0.1-0.3,0.1h-1.2l4.6-11.5h1.6L268.6,76.8z M261.1,72.6h4.3l-1.8-4.7c-0.1-0.3-0.2-0.6-0.3-1.1
			c-0.1,0.2-0.1,0.4-0.2,0.6c-0.1,0.2-0.1,0.3-0.2,0.5L261.1,72.6z"/>
		<path class="st0" d="M275,75.7c0.3,0,0.6,0,0.9,0s0.5-0.1,0.7-0.1s0.4-0.1,0.6-0.2c0.2-0.1,0.4-0.2,0.6-0.3v-2.5h-1.8
			c-0.1,0-0.2,0-0.2-0.1s-0.1-0.1-0.1-0.2v-0.9h3.5v4.4c-0.3,0.2-0.6,0.4-0.9,0.5c-0.3,0.2-0.6,0.3-1,0.4c-0.4,0.1-0.7,0.2-1.1,0.2
			c-0.4,0.1-0.8,0.1-1.3,0.1c-0.8,0-1.6-0.1-2.3-0.4s-1.3-0.7-1.8-1.2c-0.5-0.5-0.9-1.1-1.2-1.9c-0.3-0.7-0.4-1.5-0.4-2.4
			c0-0.9,0.1-1.7,0.4-2.4c0.3-0.7,0.7-1.3,1.2-1.9c0.5-0.5,1.1-0.9,1.8-1.2c0.7-0.3,1.5-0.4,2.4-0.4c0.5,0,0.9,0,1.3,0.1
			c0.4,0.1,0.8,0.2,1.1,0.3c0.3,0.1,0.6,0.3,0.9,0.5c0.3,0.2,0.5,0.4,0.8,0.6l-0.4,0.7c-0.1,0.1-0.2,0.2-0.4,0.2
			c-0.1,0-0.2,0-0.3-0.1c-0.1-0.1-0.3-0.2-0.4-0.3c-0.2-0.1-0.4-0.2-0.6-0.3s-0.5-0.2-0.8-0.3c-0.3-0.1-0.7-0.1-1.1-0.1
			c-0.6,0-1.2,0.1-1.8,0.3s-1,0.5-1.3,0.9c-0.4,0.4-0.7,0.9-0.8,1.4s-0.3,1.2-0.3,1.9c0,0.7,0.1,1.4,0.3,1.9c0.2,0.6,0.5,1,0.9,1.4
			c0.4,0.4,0.8,0.7,1.3,0.9C273.9,75.6,274.4,75.7,275,75.7z"/>
		<path class="st0" d="M288.9,65.3v1.3h-5.5v3.8h4.5v1.2h-4.5v3.9h5.5v1.3h-7.1V65.3H288.9z"/>
		<path class="st0" d="M297.2,73.1c0.1,0.1,0.1,0.3,0.2,0.4c0.1-0.1,0.1-0.3,0.2-0.4c0.1-0.1,0.1-0.3,0.2-0.4l3.9-7
			c0.1-0.1,0.1-0.2,0.2-0.2c0.1,0,0.2,0,0.3,0h1.1v11.5H302v-8.4c0-0.1,0-0.2,0-0.4c0-0.1,0-0.3,0-0.4l-3.9,7.2
			c-0.1,0.2-0.3,0.4-0.6,0.4h-0.2c-0.2,0-0.4-0.1-0.6-0.4l-4-7.2c0,0.1,0,0.3,0,0.4c0,0.1,0,0.3,0,0.4v8.4h-1.4V65.3h1.1
			c0.1,0,0.2,0,0.3,0c0.1,0,0.1,0.1,0.2,0.2l4,7.1C297.1,72.8,297.2,72.9,297.2,73.1z"/>
		<path class="st0" d="M313.4,65.3v1.3h-5.5v3.8h4.5v1.2h-4.5v3.9h5.5v1.3h-7.1V65.3H313.4z"/>
		<path class="st0" d="M316.9,65.4c0.1,0,0.1,0.1,0.2,0.2l6.6,8.6c0-0.1,0-0.3,0-0.4c0-0.1,0-0.3,0-0.4v-8.1h1.4v11.5h-0.8
			c-0.1,0-0.2,0-0.3-0.1c-0.1,0-0.2-0.1-0.2-0.2l-6.6-8.6c0,0.1,0,0.3,0,0.4s0,0.2,0,0.4v8.2h-1.4V65.3h0.8
			C316.8,65.3,316.9,65.4,316.9,65.4z"/>
		<path class="st0" d="M335.9,65.3v1.3h-3.7v10.2h-1.6V66.7H327v-1.3H335.9z"/>
	</g>
	<g>
		<path class="st0" d="M116.2,44.9c2.2,2.4,5.7,4.4,10.1,4.4c4.6,0,6.4-2.3,6.4-4.4c0-2.9-3.4-3.7-7.3-4.8
			c-5.2-1.3-11.4-2.8-11.4-9.6c0-5.3,4.7-9.4,11.7-9.4c5,0,9,1.6,12,4.5l-3.2,4.2c-2.5-2.5-5.9-3.6-9.3-3.6c-3.3,0-5.4,1.6-5.4,4
			c0,2.5,3.3,3.3,7.1,4.3c5.3,1.3,11.6,3,11.6,9.9c0,5.3-3.7,9.9-12.4,9.9c-5.9,0-10.2-2.1-13-5.1L116.2,44.9z"/>
		<path class="st0" d="M163.5,47.6h-15.2l-2.4,6.1h-6.1l12.6-32h7l12.6,32h-6.1L163.5,47.6z M149.9,42.6h12l-6-16.2L149.9,42.6z"/>
		<path class="st0" d="M181.1,30.4v23.3h-5.6v-32h5.8l16.4,22.7V21.7h5.6v32h-5.4L181.1,30.4z"/>
		<path class="st0" d="M210.1,21.7H222c10,0,16.8,6.6,16.8,16s-6.8,16-16.8,16h-11.9V21.7z M222,48.8c7,0,11-5,11-11
			c0-6.2-3.8-11.1-11-11.1h-6.3v22.1H222z"/>
		<path class="st0" d="M266.4,39.7h-16.7v14h-5.6v-32h5.6v13.1h16.7V21.7h5.6v32h-5.6V39.7z"/>
		<path class="st0" d="M278.9,21.7h5.6v32h-5.6V21.7z"/>
		<path class="st0" d="M291.3,21.7h5.6v27.1H311v4.9h-19.7V21.7z"/>
		<path class="st0" d="M316.1,21.7h5.6v27.1h14.1v4.9h-19.7V21.7z"/>
	</g>
	<g>
		<path class="st1" d="M84.4,50.9c-4.2,4.5-7.9,8.2-12.3,12.4c-1.5,1.5-10,9.7-11.3,4.1c-0.6-2.6,0.4-5.7,1.6-8.2
			c2.5-5.7,6-10.8,9.5-16.1c0.6-1,1.5-2.2,1.8-3.4c0.3-1.5-1-1.3-2.6-0.9c-4.1,1.2-7.5,4.1-10.7,6.7C54.6,50.5,48,56.9,44.3,64.4
			c-0.7,1.5-1.8,2.8-2.9,3.8c-0.7,0.6-2.3,1.9-3.2,1c-0.7-0.7,0.1-2.2,0.4-2.9c2.8-5.2,5.5-10.4,8.2-15.7c-0.9,0-2-0.1-2.8-0.1
			c-1.6,0-3.1,0-4.7,0.1c0.6,1.6,0.7,3.4,0.4,5.1c-0.9,6-6,10.5-11.3,12.7c-2.6,1-5.9,1.8-8.8,1.3c-3.1-0.3-4.2-2.9-3.5-5.7
			c0.9-2.9,2.9-5.3,5-7.3c2.3-2.1,5-3.7,7.8-4.8c1.3-0.6,2.6-1.2,4.1-1.6c-2.2-3.4-5.3-7-3.7-11.6c0.9-2.3,2.9-4.1,5.1-4.8
			c2.2-0.9,6-1.3,7.5,1c1.6,2.5-1,5.3-3.2,6.3c-0.1,0.1-1.6,0.6-1.8,0.4c-0.1-0.1,1.8-1.5,1.9-1.6c0.9-0.7,2.2-2.2,1.9-3.5
			c-0.4-1.5-2.5-1.2-3.5-0.9c-2.6,0.7-5.6,3.1-4.4,6c1.3,2.9,5,4.5,6,7.6c2.3-0.1,4.7-0.1,6.9,0.4c0.3,0.1,0.8,0.2,1.3,0.4
			c3.7-7.2,7.4-14.3,11.2-21.5c3.8-7.1,7.7-14.2,11.6-21.3c-6.1-2.9-12.9-4.6-20.1-4.6C24,2.8,3.1,23.7,3.1,49.5
			c0,25.8,20.9,46.7,46.7,46.7c25.8,0,46.7-20.9,46.7-46.7c0-3.3-0.4-6.6-1-9.7C92.1,43.2,86.1,49.3,84.4,50.9z"/>
		<path class="st1" d="M65.9,62.9c-0.3,0.4-2.3,3.4-1.6,3.7c5.3-2,9.8-7.3,14.1-11.3c3.6-3.6,12.2-12.4,16.8-16.8
			C92.2,26.3,84.4,16,73.9,9.6c-3.3,6.4-6.6,12.7-10,19.1c-4.2,7.8-8.3,15.5-12.6,23c0.9-0.9,1.9-1.9,2.8-2.9
			c4.5-4.5,9.7-8.2,15.4-11.3c2.8-1.5,7.3-3.1,8.3,1.8c0.4,2.9-0.7,5.7-2,8.2C73,53,69.2,57.8,65.9,62.9z"/>
		<path class="st1" d="M19.9,60.9c-1,1.3-3.8,5.6-1,6.7c2.6,1,6.3-0.7,8.5-2.2c4.4-2.6,8.3-8.3,6.4-13.6
			C28.4,53.3,23.3,56.3,19.9,60.9z"/>
	</g>
</g>
</svg>
