<?xml version="1.0" standalone="no"?>
<!DOCTYPE svg PUBLIC "-//W3C//DTD SVG 20010904//EN"
 "http://www.w3.org/TR/2001/REC-SVG-20010904/DTD/svg10.dtd">
<svg version="1.0" xmlns="http://www.w3.org/2000/svg"
 width="924.000000pt" height="924.000000pt" viewBox="0 0 924.000000 924.000000"
 preserveAspectRatio="xMidYMid meet">
<metadata>
Created by potrace 1.14, written by Peter Selinger 2001-2017
</metadata>
<g transform="translate(0.000000,924.000000) scale(0.100000,-0.100000)"
fill="#000000" stroke="none">
<path d="M1726 8313 c-3 -3 -27 -6 -54 -8 -26 -1 -62 -5 -78 -9 -16 -3 -45 -8
-64 -11 -198 -32 -406 -114 -563 -223 -46 -33 -180 -160 -225 -215 -38 -46
-124 -177 -126 -192 -1 -7 -6 -19 -12 -26 -33 -46 -102 -242 -120 -346 -2 -13
-6 -35 -9 -50 -12 -68 -19 -194 -19 -395 l-1 -218 -117 1 c-64 1 -121 -2 -127
-5 -6 -4 -11 -4 -11 1 0 8 -124 7 -147 -1 -7 -3 -13 -1 -13 3 0 5 -9 7 -20 4
-20 -5 -20 -12 -18 -412 l3 -406 30 -3 c35 -3 34 -3 128 -1 39 1 77 0 82 -1 6
-1 15 -1 20 0 27 5 177 2 183 -4 4 -4 7 -724 7 -1599 l0 -1592 608 0 c345 0
611 4 614 9 8 12 6 143 -2 156 -3 5 -3 10 2 10 9 0 8 123 -1 146 -3 8 -2 14 2
14 8 0 6 124 -2 146 -3 8 -2 14 2 14 8 0 7 253 -2 275 -3 8 -2 15 2 15 8 0 7
203 -2 225 -3 8 -2 15 2 15 8 0 8 137 0 146 -3 3 -2 19 1 37 4 18 4 44 0 60
-4 15 -4 27 -1 27 8 0 6 125 -2 146 -3 8 -2 14 2 14 8 0 7 253 -2 275 -3 8 -2
15 2 15 8 0 7 203 -2 225 -3 8 -2 15 2 15 9 0 8 133 -1 147 -4 6 -4 13 0 17 8
8 7 212 -2 225 -3 6 -3 11 2 11 9 0 8 202 -1 225 -3 8 -2 15 2 15 8 0 8 137 0
146 -4 3 -3 18 2 33 4 15 3 35 -2 44 -5 10 -5 17 -1 17 9 0 9 128 0 136 -3 4
-2 17 3 30 6 16 6 24 -1 24 -6 0 -7 6 -1 17 6 9 6 29 2 45 -5 16 -5 28 0 28 5
0 7 7 4 15 -11 27 13 44 51 35 19 -4 36 -5 40 -2 8 9 108 9 127 0 9 -4 19 -5
22 0 6 9 47 8 64 -2 6 -4 20 -3 29 1 21 10 114 10 131 -1 7 -4 12 -4 12 1 0
10 52 9 68 -1 7 -4 12 -3 12 1 0 5 15 8 33 6 17 -2 38 -4 45 -4 129 3 161 3
169 -2 5 -3 15 -2 23 3 13 8 15 71 16 407 1 225 -3 403 -8 410 -6 7 -19 9 -38
3 -16 -4 -31 -6 -34 -3 -7 8 -143 6 -156 -2 -5 -3 -10 -3 -10 2 0 8 -124 7
-147 -1 -7 -3 -13 -2 -13 2 0 8 -125 6 -147 -2 -7 -3 -13 -2 -13 2 0 8 -125 6
-147 -2 -7 -3 -13 -2 -13 2 0 4 -26 7 -57 7 -48 0 -58 3 -58 17 0 9 -3 20 -7
24 -4 3 -3 15 3 25 5 11 6 19 1 19 -5 0 -6 17 -2 39 4 22 4 45 -1 52 -4 7 -5
17 -2 22 3 5 7 57 8 115 6 222 70 351 206 414 102 47 343 55 674 23 l30 -3 0
457 c0 449 0 456 -20 457 -61 4 -246 17 -285 21 -70 7 -558 12 -564 6z"/>
<path d="M2760 8255 c-5 -6 -8 -233 -7 -505 l2 -495 610 0 610 0 2 490 c0 270
-1 497 -3 505 -3 13 -78 15 -605 15 -391 0 -604 -3 -609 -10z"/>
<path d="M5587 7185 c-1 -2 -41 -5 -88 -9 -47 -4 -97 -9 -110 -11 -13 -3 -37
-8 -54 -10 -16 -3 -37 -8 -45 -10 -8 -2 -31 -7 -49 -10 -67 -11 -273 -83 -331
-115 -8 -5 -42 -22 -75 -39 -58 -29 -198 -119 -265 -171 -93 -71 -264 -252
-342 -361 -58 -80 -78 -109 -78 -114 0 -3 -12 -24 -27 -48 -30 -46 -116 -219
-127 -254 -4 -13 -10 -23 -14 -23 -4 0 -7 237 -7 527 l1 528 -611 0 -610 0 -2
-2231 -3 -2230 613 0 612 1 0 613 c0 336 2 612 5 612 3 0 27 -46 54 -102 42
-88 148 -273 165 -288 4 -3 19 -23 36 -45 52 -70 152 -176 242 -257 106 -95
375 -248 513 -293 30 -10 64 -21 75 -26 25 -10 128 -36 175 -43 19 -3 46 -8
60 -11 14 -3 45 -8 70 -10 25 -3 68 -8 95 -11 111 -14 424 -7 515 11 14 3 41
8 60 11 19 3 43 7 52 10 10 3 30 7 45 10 14 3 79 23 144 44 280 94 460 214
638 425 13 16 46 62 72 104 36 55 50 70 55 58 8 -21 -2 -778 -11 -832 -51
-308 -180 -545 -371 -681 -34 -24 -67 -44 -73 -44 -6 0 -11 -4 -11 -10 0 -5
-3 -9 -7 -8 -5 1 -21 -5 -38 -14 -16 -9 -50 -21 -75 -28 -25 -7 -52 -15 -60
-18 -115 -41 -444 -51 -595 -18 -137 30 -191 48 -304 104 -96 47 -202 150
-256 247 -43 76 -97 219 -88 229 4 3 -11 6 -33 7 -49 1 -1165 1 -1182 0 -8 -1
-11 -11 -8 -29 3 -15 8 -52 11 -82 3 -30 8 -63 11 -72 6 -21 15 -59 18 -78 1
-8 8 -35 16 -60 7 -25 14 -49 16 -55 1 -5 12 -32 25 -60 12 -27 23 -55 24 -61
2 -6 15 -29 29 -52 14 -23 26 -45 26 -48 0 -18 152 -207 221 -275 128 -127
249 -212 425 -301 132 -67 333 -143 434 -164 19 -4 40 -9 45 -10 56 -16 95
-25 120 -29 17 -2 41 -6 55 -10 14 -3 48 -8 75 -11 28 -4 53 -8 56 -10 17 -10
213 -19 409 -19 215 1 351 7 463 22 29 4 62 7 75 7 12 1 22 5 22 9 0 5 4 6 9
3 5 -3 33 -1 62 4 30 5 63 11 74 13 11 1 26 6 33 10 6 5 12 6 12 4 0 -4 23 1
130 27 8 2 29 7 45 11 17 4 36 12 43 18 6 5 12 7 12 3 0 -6 36 6 125 42 43 17
230 106 255 121 8 5 44 27 80 47 152 88 343 250 445 378 87 109 177 261 236
401 19 44 58 173 69 230 6 33 14 67 17 75 3 8 7 31 9 50 1 19 6 46 9 60 3 14
8 48 11 75 3 28 7 56 9 63 15 45 18 502 19 2367 l0 2100 -582 0 -582 0 0 -298
c0 -173 -4 -297 -9 -295 -10 4 -101 137 -101 148 0 5 -3 10 -7 12 -5 2 -26 26
-48 53 -53 67 -216 225 -232 225 -7 0 -13 4 -13 8 0 11 -142 96 -215 128 -76
33 -195 75 -195 67 0 -3 -6 -1 -12 4 -7 6 -31 14 -53 18 -58 10 -77 14 -105
21 -14 3 -41 7 -60 9 -19 2 -57 7 -85 10 -45 7 -322 14 -328 10z m538 -930
c97 -7 113 -9 192 -29 221 -55 441 -235 551 -451 11 -22 20 -44 20 -49 0 -5 5
-12 10 -15 18 -11 88 -229 108 -335 2 -12 6 -32 9 -46 4 -25 8 -54 22 -160 8
-67 9 -428 1 -490 -16 -119 -75 -345 -98 -375 -5 -5 -8 -12 -7 -15 2 -9 -75
-154 -106 -200 -52 -76 -119 -150 -187 -207 -83 -68 -82 -68 -100 -76 -16 -7
-37 -20 -82 -50 -16 -10 -28 -16 -28 -12 0 3 -18 -4 -40 -15 -22 -11 -40 -18
-40 -14 0 4 -6 2 -12 -4 -11 -9 -72 -24 -95 -24 -5 0 -15 -4 -24 -9 -45 -23
-307 -26 -414 -3 -106 22 -110 23 -207 67 -38 16 -68 34 -68 38 0 5 -5 9 -11
9 -33 0 -205 165 -266 256 -59 89 -93 151 -86 158 3 3 2 6 -3 6 -6 0 -16 17
-23 38 -8 20 -18 48 -24 62 -12 31 -11 27 -38 125 -11 44 -23 91 -25 105 -2
14 -6 39 -8 55 -3 17 -7 41 -10 54 -11 51 -20 202 -20 346 0 172 7 253 39 420
30 159 136 402 208 481 7 7 22 25 34 41 33 44 88 99 130 130 21 15 46 35 56
44 35 31 183 99 260 119 43 10 108 22 145 26 37 3 68 7 69 8 2 2 66 -1 168 -9z"/>
<path d="M8436 7082 c-10 -2 -16 -11 -14 -20 2 -13 16 -17 58 -18 30 0 62 -2
71 -2 13 -2 15 -28 15 -207 -1 -139 2 -206 10 -209 30 -11 34 13 36 214 l3
205 68 0 c47 0 67 4 67 12 0 7 0 16 0 20 0 6 -282 11 -314 5z"/>
<path d="M8834 7082 c-21 -3 -22 -6 -21 -228 1 -221 1 -224 22 -224 21 0 21 3
20 186 0 175 6 236 18 182 2 -12 22 -68 42 -123 21 -55 49 -133 64 -172 21
-60 29 -73 47 -73 17 0 26 12 44 63 12 34 26 71 31 82 4 11 22 58 39 105 18
47 37 100 44 119 11 30 13 7 12 -167 l-1 -202 23 0 22 0 0 225 c0 124 -3 225
-7 226 -5 0 -16 2 -25 4 -24 4 -43 -21 -62 -85 -10 -30 -22 -64 -27 -75 -13
-29 -70 -187 -74 -205 -2 -8 -4 -18 -4 -22 -1 -12 -21 -9 -21 2 0 6 -16 52
-36 103 -19 50 -45 117 -56 147 -11 30 -24 64 -28 75 -5 11 -11 28 -14 38 -3
10 -10 16 -15 13 -5 -4 -11 -3 -13 1 -1 5 -13 7 -24 5z"/>
</g>
</svg>
