<?xml version="1.0" encoding="UTF-8"?>
<svg xmlns="http://www.w3.org/2000/svg" width="208" height="32" viewBox="0 0 208 32" fill="none">
  <g clip-path="url(#clip0_55529_1960)">
    <path d="M17.1167 31.5132H24.6556V26.1932H28.5594V18.919H24.6556V0.486328H16.3343L0 19.6768V25.9699H17.1167V31.5132ZM14.8645 18.919C12.7861 18.919 10.7078 18.9669 9.19053 19.0546C10.3206 17.9459 11.5771 16.5262 13.1813 14.5322L13.6159 13.9978C15.6073 11.5571 16.4371 10.4564 17.2589 9.16429C17.172 10.6319 17.1246 14.0377 17.1246 15.8562V18.9111H14.8645V18.919Z" fill="#7EB4D5"></path>
    <path d="M44.0722 24.9093C40.7374 24.9093 37.9162 23.6251 35.4507 21.671L31.1201 27.2542C34.368 30.1815 38.746 32 43.8984 32C52.1327 32 57.2061 28.8495 57.2061 21.671C57.2061 17.7228 54.7326 15.6411 51.9193 14.9791C53.9977 13.9581 55.9496 12.3151 55.9496 8.9013C55.9417 2.35294 51.0896 0 43.8114 0C38.5247 0 34.8817 1.81854 32.0684 4.03589L36.0591 9.61914C38.3983 7.88833 40.6505 6.96311 43.5981 6.96311C46.5852 6.96311 47.8022 7.84845 47.8022 9.49152C47.8022 11.5334 46.9329 12.1077 44.2935 12.1077H40.3976V18.7996H44.7755C47.8496 18.7996 49.0666 19.5972 49.0666 21.7667C49.0507 23.8883 47.5809 24.9093 44.0722 24.9093Z" fill="#7EB4D5"></path>
    <path d="M79.9093 8.94894C79.9093 11.4774 79.9567 15.601 80.1701 16.9729C79.5142 15.6887 76.8274 11.5651 75.4444 9.65881L68.7748 0.486328H61.3623V31.5053H69.4228V22.0217C69.4228 19.4933 69.3754 15.3697 69.162 13.9978C69.9444 15.3697 72.5443 19.3577 73.8877 21.272L81.1263 31.5053H87.9698V0.486328H79.9093V8.94894Z" fill="#103C61"></path>
    <path d="M91.9922 16.0399C91.9922 26.3609 97.761 31.992 105.987 31.992C114.214 31.992 120.07 26.2732 120.07 15.9521C120.07 5.63111 114.309 0 106.074 0C97.84 0 91.9922 5.71884 91.9922 16.0399ZM111.369 16.0399C111.369 21.6231 109.464 24.5025 106.082 24.5025C102.7 24.5025 100.709 21.5354 100.709 15.9521C100.709 10.3689 102.613 7.48953 105.995 7.48953C109.37 7.48953 111.369 10.4566 111.369 16.0399Z" fill="#103C61"></path>
    <path d="M149.498 10.592C149.498 3.23807 144.772 0.486328 137.668 0.486328H124.107V31.5053H132.389V21.0486H135.764L140.703 31.5053H150.106L144.045 19.6688C147.38 18.1294 149.498 15.2421 149.498 10.592ZM137.32 14.269H132.381V7.48932H137.447C140.086 7.48932 141.129 8.8612 141.129 10.8153C141.137 13.0327 140.055 14.269 137.32 14.269Z" fill="#103C61"></path>
    <path d="M151.972 0.486328V7.97586H160.467V31.5132H168.875V7.97586H177.37V0.486328H151.972Z" fill="#103C61"></path>
    <path d="M199.426 0.486328V12.2271H189.975V0.486328H181.393V31.5132H189.975V19.7166H199.426V31.5132H208V0.486328H199.426Z" fill="#103C61"></path>
  </g>
  <defs>
    <clipPath id="clip0_55529_1960">
      <rect width="208" height="32" fill="white"></rect>
    </clipPath>
  </defs>
</svg>
